<?xml version="1.0" encoding="utf-8"?>
<!-- Created by sK1 2.0rc4 (https://sk1project.net/) -->
<svg xmlns="http://www.w3.org/2000/svg" height="302.816px" width="302.816px" version="1.1" xmlns:xlink="http://www.w3.org/1999/xlink" id="eca86d9a-4f1c-11eb-ae0d-247703af7854">

<g>
	<path style="fill:#000000;" d="M 4.3969,152.996 C 10.2539,147.138 19.7509,147.138 25.6099,152.996 L 60.7469,188.132 C 66.6179,128.352 110.8969,76.729 172.7479,64.426 218.2739,55.371 265.2269,69.431 298.3439,102.038 304.2469,107.851 304.3209,117.348 298.5089,123.251 292.6959,129.154 283.1989,129.228 277.2969,123.415 251.2679,97.787 214.3739,86.736 178.6019,93.85 129.7369,103.57 94.8299,144.527 90.5319,191.828 L 129.3669,152.993 C 135.2239,147.136 144.7219,147.135 150.5799,152.994 156.4379,158.852 156.4379,168.349 150.5799,174.207 L 88.0949,236.692 C 85.1659,239.621 81.3269,241.085 77.4889,241.085 73.6509,241.085 69.8109,239.621 66.8819,236.692 L 4.3989,174.21 C -1.4611,168.352 -1.4611,158.854 4.3969,152.996 Z" />
</g>
</svg>